<?xml version="1.0" encoding="utf-8"?>
<!-- Generator: Adobe Illustrator 22.0.1, SVG Export Plug-In . SVG Version: 6.00 Build 0)  -->
<svg version="1.1" id="Layer_1" xmlns="http://www.w3.org/2000/svg" xmlns:xlink="http://www.w3.org/1999/xlink" x="0px" y="0px"
	 viewBox="0 0 150.9 80" style="enable-background:new 0 0 150.9 80;" xml:space="preserve">
<style type="text/css">
	.st0{fill:#00B2AF;}
	.st1{fill:#FFFFFF;}
</style>
<g>
	<path d="M147,74.6c0-1.1,0-1.8,0.1-2.2c0.1-0.3,0.2-0.6,0.4-0.7c0.2-0.1,0.4-0.2,0.6-0.2c0.2,0,0.5,0.1,0.8,0.3l0.5-1.5
		c-0.4-0.2-0.7-0.3-1.1-0.3c-0.3,0-0.5,0.1-0.7,0.2c-0.2,0.1-0.5,0.4-0.7,0.9v-0.9h-1.6v6.5h1.7V74.6z M139.4,73.8
		c0,0.4,0,0.7-0.1,0.8c-0.1,0.2-0.2,0.4-0.4,0.6c-0.3,0.2-0.6,0.3-0.9,0.3c-0.3,0-0.5-0.1-0.7-0.3c-0.2-0.2-0.3-0.4-0.3-0.6
		c0-0.2,0.1-0.4,0.3-0.6c0.1-0.1,0.5-0.2,0.9-0.3c0.5-0.1,0.8-0.2,1-0.3V73.8z M137.5,71.5c0.2-0.1,0.4-0.2,0.7-0.2
		c0.5,0,0.8,0.1,0.9,0.2c0.2,0.1,0.2,0.4,0.2,0.7v0.2c-0.3,0.1-0.9,0.3-1.7,0.4c-0.6,0.1-1.1,0.2-1.4,0.4c-0.3,0.2-0.6,0.4-0.7,0.7
		c-0.2,0.3-0.3,0.6-0.3,1c0,0.6,0.2,1,0.6,1.4c0.4,0.4,0.9,0.5,1.6,0.5c0.4,0,0.7-0.1,1.1-0.2c0.3-0.1,0.6-0.4,0.9-0.6
		c0,0,0,0.1,0.1,0.2c0.1,0.2,0.1,0.4,0.2,0.5h1.7c-0.2-0.3-0.3-0.6-0.3-0.9c-0.1-0.3-0.1-0.7-0.1-1.3l0-2c0-0.7-0.1-1.3-0.2-1.5
		c-0.2-0.3-0.4-0.5-0.8-0.7c-0.4-0.2-0.9-0.3-1.7-0.3c-0.8,0-1.5,0.2-1.9,0.5c-0.4,0.3-0.7,0.8-0.9,1.4l1.6,0.3
		C137.2,71.8,137.4,71.6,137.5,71.5 M130,73.8c0,0.4,0,0.7-0.1,0.8c-0.1,0.2-0.2,0.4-0.4,0.6c-0.3,0.2-0.6,0.3-0.9,0.3
		c-0.3,0-0.5-0.1-0.7-0.3c-0.2-0.2-0.3-0.4-0.3-0.6c0-0.2,0.1-0.4,0.3-0.6c0.1-0.1,0.5-0.2,0.9-0.3s0.8-0.2,1-0.3V73.8z M128.1,71.5
		c0.2-0.1,0.4-0.2,0.7-0.2c0.5,0,0.8,0.1,0.9,0.2c0.2,0.1,0.2,0.4,0.2,0.7v0.2c-0.3,0.1-0.9,0.3-1.7,0.4c-0.6,0.1-1,0.2-1.4,0.4
		c-0.3,0.2-0.6,0.4-0.7,0.7c-0.2,0.3-0.3,0.6-0.3,1c0,0.6,0.2,1,0.6,1.4c0.4,0.4,0.9,0.5,1.6,0.5c0.4,0,0.7-0.1,1.1-0.2
		c0.3-0.1,0.6-0.4,0.9-0.6c0,0,0,0.1,0.1,0.2c0.1,0.2,0.1,0.4,0.2,0.5h1.7c-0.2-0.3-0.3-0.6-0.3-0.9c-0.1-0.3-0.1-0.7-0.1-1.3l0-2
		c0-0.7-0.1-1.3-0.2-1.5c-0.2-0.3-0.4-0.5-0.8-0.7c-0.4-0.2-0.9-0.3-1.7-0.3c-0.8,0-1.5,0.2-1.9,0.5c-0.4,0.3-0.7,0.8-0.9,1.4
		l1.6,0.3C127.8,71.8,127.9,71.6,128.1,71.5 M122.7,76.6v-1.5h-2.7c-0.1,0-0.4,0-0.9,0l0.9-0.9l2.5-2.9v-1.2h-5.4v1.4l2.3,0
		c0.3,0,0.6,0,0.8,0c-0.2,0.2-0.5,0.5-0.9,1l-2.4,2.8v1.3H122.7z M111.7,73.8c0,0.4,0,0.7-0.1,0.8c-0.1,0.2-0.2,0.4-0.4,0.6
		c-0.3,0.2-0.6,0.3-0.9,0.3c-0.3,0-0.5-0.1-0.7-0.3c-0.2-0.2-0.3-0.4-0.3-0.6c0-0.2,0.1-0.4,0.3-0.6c0.1-0.1,0.5-0.2,0.9-0.3
		s0.8-0.2,1-0.3V73.8z M109.8,71.5c0.2-0.1,0.4-0.2,0.7-0.2c0.5,0,0.8,0.1,0.9,0.2c0.2,0.1,0.2,0.4,0.2,0.7v0.2
		c-0.3,0.1-0.9,0.3-1.7,0.4c-0.6,0.1-1.1,0.2-1.4,0.4c-0.3,0.2-0.6,0.4-0.7,0.7c-0.2,0.3-0.3,0.6-0.3,1c0,0.6,0.2,1,0.6,1.4
		c0.4,0.4,0.9,0.5,1.6,0.5c0.4,0,0.7-0.1,1.1-0.2c0.3-0.1,0.6-0.4,0.9-0.6c0,0,0,0.1,0.1,0.2c0.1,0.2,0.1,0.4,0.2,0.5h1.7
		c-0.2-0.3-0.3-0.6-0.3-0.9c-0.1-0.3-0.1-0.7-0.1-1.3l0-2c0-0.7-0.1-1.3-0.2-1.5c-0.2-0.3-0.4-0.5-0.8-0.7c-0.4-0.2-0.9-0.3-1.7-0.3
		c-0.8,0-1.5,0.2-1.9,0.5c-0.4,0.3-0.7,0.8-0.9,1.4l1.6,0.3C109.5,71.8,109.7,71.6,109.8,71.5 M100,71.8c0.3-0.3,0.6-0.5,1-0.5
		c0.4,0,0.8,0.2,1,0.5c0.3,0.3,0.4,0.9,0.4,1.6c0,0.7-0.1,1.2-0.4,1.5c-0.3,0.3-0.6,0.5-1,0.5c-0.5,0-0.9-0.2-1.2-0.7
		c-0.2-0.3-0.3-0.8-0.3-1.5C99.6,72.6,99.8,72.1,100,71.8 M99.5,76.6v-1c0.3,0.4,0.6,0.6,0.9,0.8c0.4,0.2,0.7,0.3,1.1,0.3
		c0.8,0,1.4-0.3,1.9-0.9c0.5-0.6,0.8-1.5,0.8-2.6c0-1.1-0.3-1.9-0.8-2.5c-0.5-0.6-1.2-0.9-2-0.9c-0.7,0-1.4,0.3-1.9,0.9v-3.2h-1.7v9
		H99.5z M83.6,76.6v-3.5c0-0.8,0.2-1.4,0.5-1.7c0.3-0.3,0.7-0.4,1.2-0.4c0.3,0,0.5,0.1,0.8,0.2c0.2,0.1,0.4,0.3,0.5,0.5
		c0.1,0.2,0.1,0.6,0.1,1v3.9h1.1v-4c0-0.5,0-0.9-0.1-1.1c-0.1-0.3-0.2-0.6-0.3-0.8c-0.2-0.2-0.4-0.4-0.7-0.6
		C86.3,70,85.9,70,85.5,70c-0.9,0-1.6,0.4-2.1,1.1v-0.9h-1v6.5H83.6z M74.3,71.5c0.4-0.4,0.8-0.6,1.4-0.6c0.5,0,1,0.2,1.4,0.6
		c0.4,0.4,0.5,1,0.5,1.8c0,0.9-0.2,1.5-0.5,1.9c-0.4,0.4-0.8,0.6-1.4,0.6c-0.6,0-1-0.2-1.4-0.6c-0.4-0.4-0.5-1-0.5-1.9
		C73.7,72.5,73.9,71.9,74.3,71.5 M73.4,75.9c0.6,0.6,1.3,0.9,2.2,0.9c0.6,0,1.1-0.1,1.6-0.4c0.5-0.3,0.8-0.6,1.1-1.1
		c0.3-0.5,0.4-1.1,0.4-2c0-1-0.3-1.8-0.9-2.4c-0.6-0.6-1.3-0.9-2.2-0.9c-0.8,0-1.5,0.2-2,0.7c-0.7,0.6-1,1.5-1,2.7
		C72.6,74.4,72.9,75.3,73.4,75.9 M68.8,70.1h-1.1v6.5h1.1V70.1z M68.8,67.6h-1.1v1.3h1.1V67.6z M63.7,75.7c-0.2,0-0.3,0-0.4-0.1
		c-0.1-0.1-0.2-0.1-0.2-0.2c0-0.1-0.1-0.3-0.1-0.6V71h1.1v-0.9H63v-2.3l-1.1,0.7v1.6h-0.8V71h0.8v3.7c0,0.7,0,1.1,0.1,1.3
		c0.1,0.2,0.2,0.4,0.5,0.5c0.2,0.1,0.5,0.2,0.9,0.2c0.2,0,0.5,0,0.8-0.1l-0.2-1C63.9,75.6,63.8,75.7,63.7,75.7 M56.4,73.7
		c0,0.5-0.1,0.9-0.2,1.1c-0.2,0.3-0.4,0.6-0.7,0.8c-0.3,0.2-0.7,0.3-1.1,0.3c-0.4,0-0.8-0.1-1-0.3c-0.2-0.2-0.3-0.4-0.3-0.7
		c0-0.2,0.1-0.4,0.2-0.5c0.1-0.2,0.2-0.3,0.4-0.4c0.2-0.1,0.5-0.2,1-0.2c0.8-0.1,1.4-0.3,1.8-0.4V73.7z M56.7,76.6h1.1
		c-0.1-0.2-0.2-0.5-0.3-0.8c0-0.3-0.1-0.9-0.1-1.9v-1.5c0-0.5,0-0.8-0.1-1c-0.1-0.3-0.2-0.6-0.3-0.7c-0.2-0.2-0.4-0.4-0.8-0.5
		C56,70,55.6,70,55,70c-0.6,0-1,0.1-1.5,0.2c-0.4,0.2-0.7,0.4-1,0.7c-0.2,0.3-0.4,0.7-0.5,1.1l1.1,0.1c0.1-0.5,0.3-0.8,0.5-1
		c0.2-0.2,0.6-0.3,1.1-0.3c0.6,0,1,0.1,1.3,0.4c0.2,0.2,0.3,0.5,0.3,0.9c0,0,0,0.1,0,0.3c-0.4,0.1-1.1,0.3-2,0.4
		c-0.4,0.1-0.8,0.1-1,0.2c-0.3,0.1-0.6,0.2-0.8,0.4c-0.2,0.2-0.4,0.4-0.6,0.6c-0.1,0.3-0.2,0.6-0.2,0.9c0,0.5,0.2,1,0.6,1.3
		c0.4,0.3,0.9,0.5,1.6,0.5c0.4,0,0.8-0.1,1.2-0.2c0.4-0.1,0.8-0.4,1.2-0.7C56.5,76.1,56.6,76.4,56.7,76.6 M47.2,75.4
		c-0.3,0.3-0.7,0.4-1.1,0.4c-0.5,0-1-0.2-1.3-0.6c-0.3-0.4-0.5-1-0.5-1.9c0-0.9,0.2-1.5,0.5-1.9c0.3-0.4,0.8-0.6,1.4-0.6
		c0.4,0,0.7,0.1,0.9,0.3c0.3,0.2,0.4,0.5,0.5,1l1.1-0.2c-0.1-0.7-0.4-1.2-0.9-1.5c-0.4-0.4-1-0.5-1.7-0.5c-0.6,0-1.1,0.1-1.6,0.4
		c-0.5,0.3-0.8,0.7-1.1,1.2c-0.2,0.5-0.3,1.1-0.3,1.8c0,1.1,0.3,1.9,0.8,2.5c0.5,0.6,1.3,0.9,2.1,0.9c0.7,0,1.3-0.2,1.8-0.6
		c0.5-0.4,0.8-1,0.9-1.8l-1.1-0.1C47.7,74.8,47.5,75.2,47.2,75.4 M39.3,70.1h-1.1v6.5h1.1V70.1z M39.3,67.6h-1.1v1.3h1.1V67.6z
		 M30,71.5c0.3-0.4,0.7-0.6,1.2-0.6c0.5,0,0.9,0.2,1.3,0.6c0.3,0.4,0.5,1.1,0.5,2c0,0.8-0.2,1.4-0.5,1.8c-0.3,0.4-0.7,0.6-1.2,0.6
		c-0.5,0-0.9-0.2-1.2-0.6c-0.4-0.4-0.5-1-0.5-1.9C29.5,72.5,29.6,71.9,30,71.5 M34,76.6v-9h-1.1v3.2c-0.2-0.3-0.4-0.5-0.7-0.6
		c-0.3-0.2-0.7-0.2-1-0.2c-0.5,0-1,0.1-1.4,0.4c-0.4,0.3-0.8,0.7-1,1.2c-0.2,0.5-0.3,1.1-0.3,1.8c0,0.7,0.1,1.3,0.4,1.8
		c0.2,0.5,0.6,0.9,1,1.2c0.4,0.3,0.9,0.4,1.4,0.4c0.8,0,1.4-0.3,1.8-1v0.8H34z M20.4,76.6v-3.5c0-0.8,0.2-1.4,0.5-1.7
		c0.3-0.3,0.7-0.4,1.2-0.4c0.3,0,0.5,0.1,0.8,0.2c0.2,0.1,0.4,0.3,0.5,0.5c0.1,0.2,0.1,0.6,0.1,1v3.9h1.1v-4c0-0.5,0-0.9-0.1-1.1
		c-0.1-0.3-0.2-0.6-0.3-0.8c-0.2-0.2-0.4-0.4-0.7-0.6C23.1,70,22.7,70,22.3,70c-0.9,0-1.6,0.4-2.1,1.1v-0.9h-1v6.5H20.4z M11.2,79.2
		c0.4,0,0.7-0.1,0.9-0.3c0.3-0.2,0.5-0.4,0.7-0.8c0.1-0.3,0.4-0.8,0.6-1.5l2.5-6.6h-1.1l-1.4,3.8c-0.2,0.5-0.3,1-0.5,1.5
		c-0.1-0.5-0.3-1-0.5-1.5l-1.4-3.8H9.9l2.5,6.5c0,0.1-0.1,0.2-0.1,0.3c-0.2,0.4-0.3,0.7-0.3,0.8c-0.1,0.1-0.2,0.3-0.4,0.3
		c-0.1,0.1-0.3,0.1-0.6,0.1c-0.2,0-0.4,0-0.6-0.1l0.1,1C10.7,79.2,11,79.2,11.2,79.2 M2.2,76.2c0.4,0.4,1.1,0.5,1.9,0.5
		c0.5,0,1-0.1,1.4-0.3c0.4-0.2,0.7-0.4,0.9-0.8c0.2-0.3,0.3-0.7,0.3-1c0-0.4-0.1-0.7-0.3-0.9c-0.2-0.3-0.4-0.4-0.7-0.6
		c-0.3-0.1-0.9-0.3-1.6-0.5c-0.5-0.1-0.9-0.2-1-0.3c-0.2-0.1-0.3-0.2-0.4-0.3c-0.1-0.1-0.1-0.2-0.1-0.4c0-0.2,0.1-0.4,0.3-0.6
		c0.2-0.2,0.6-0.3,1.1-0.3c0.4,0,0.8,0.1,1,0.3c0.2,0.2,0.4,0.4,0.4,0.8l1.1-0.1c-0.1-0.4-0.2-0.8-0.4-1c-0.2-0.3-0.5-0.4-0.9-0.6
		C4.8,70,4.4,70,3.9,70c-0.3,0-0.7,0-1,0.1c-0.3,0.1-0.5,0.2-0.7,0.3C2,70.6,1.8,70.8,1.7,71c-0.1,0.2-0.2,0.5-0.2,0.8
		c0,0.3,0.1,0.6,0.2,0.9c0.2,0.3,0.4,0.5,0.7,0.6c0.3,0.1,0.9,0.3,1.7,0.5c0.6,0.2,1,0.3,1.1,0.4c0.2,0.1,0.3,0.3,0.3,0.6
		c0,0.3-0.1,0.5-0.4,0.7c-0.2,0.2-0.6,0.3-1.1,0.3c-0.5,0-0.9-0.1-1.2-0.3c-0.3-0.2-0.4-0.6-0.5-1l-1.1,0.2
		C1.4,75.3,1.7,75.9,2.2,76.2"/>
	<g>
		<path d="M56.2,15.4L56.2,15.4l-7.5,0c-0.2,0-0.4,0.2-0.4,0.4v37.7h38.1V15.8c0-0.2-0.2-0.4-0.4-0.4H56.2z"/>
		<path class="st0" d="M93.9,8.2H56.6c-0.2,0-0.4,0.2-0.4,0.4V13c0,0.2,0.2,0.4,0.4,0.4H88c0.2,0,0.4,0.2,0.4,0.4l0,32.1
			c0,0.2,0.2,0.4,0.4,0.4h5.1c0.2,0,0.4-0.2,0.4-0.4v-7h0V8.6C94.3,8.3,94.1,8.2,93.9,8.2z"/>
		<path d="M64.4,1.2v4.6c0,0.2,0.2,0.4,0.4,0.4H96c0.2,0,0.4,0.2,0.4,0.4v32c0,0.2,0.2,0.4,0.4,0.4h5.4c0.2,0,0.4-0.2,0.4-0.4V1.2
			c0-0.2-0.2-0.4-0.4-0.4H64.8C64.6,0.8,64.4,1,64.4,1.2z"/>
		<path class="st1" d="M72.8,42.7c-1,0-2-0.2-2.8-0.7h0l-0.1-0.1c-0.7-0.4-1.2-1-1.7-1.6v1.8c0,0.2-0.2,0.4-0.4,0.4H67
			c-0.2,0-0.4-0.2-0.4-0.4V26.8c0-0.2,0.2-0.4,0.4-0.4h0.7c0.2,0,0.4,0.2,0.4,0.4v4.4c0,0.3,0.4,0.5,0.6,0.3
			c0.4-0.3,0.8-0.6,1.3-0.8c0.8-0.4,1.7-0.6,2.6-0.6c0.2,0,0.4,0,0.6,0c1.3,0.1,2.5,0.7,3.5,1.6c1,0.9,1.6,2,1.9,3.4
			c0.2,0.8,0.2,1.7,0,2.6c-0.2,0.9-0.5,1.7-1,2.4c-0.5,0.7-1.2,1.3-1.9,1.8c-0.8,0.5-1.6,0.7-2.5,0.8C73.2,42.7,73,42.7,72.8,42.7
			 M72.6,31.6c-0.7,0-1.4,0.2-2,0.5c-0.8,0.4-1.4,0.9-1.9,1.7c-0.5,0.7-0.7,1.5-0.7,2.4c0,0.8,0.2,1.7,0.7,2.5
			c0.5,0.8,1.1,1.5,1.9,2c0.6,0.4,1.4,0.6,2.1,0.6h0c0.2,0,0.3,0,0.5,0c0.7-0.1,1.3-0.3,1.9-0.6c0.6-0.3,1.1-0.8,1.5-1.3
			c0.4-0.5,0.6-1.2,0.8-1.8c0.1-0.7,0.1-1.3,0-2c-0.2-1-0.7-1.9-1.5-2.6c-0.8-0.7-1.7-1.1-2.7-1.2C73,31.6,72.8,31.6,72.6,31.6"/>
		<path class="st1" d="M59.5,42.7c-0.9,0-1.7-0.3-2.4-0.9c-0.7-0.6-1.1-1.4-1.2-2.4c0-0.2,0-0.5,0-0.7l0-0.5l1.5,0l0,0.5
			c0,0.1,0,0.3,0,0.4c0.1,0.6,0.3,1.1,0.7,1.5c0.4,0.4,0.9,0.6,1.4,0.6l0.1,0c0.4,0,0.7-0.1,1-0.3c0.3-0.2,0.5-0.4,0.7-0.8
			c0.2-0.3,0.2-0.6,0.2-1c0-0.4-0.1-0.7-0.3-1c-0.2-0.3-0.5-0.6-0.9-0.8c-0.2-0.1-0.6-0.4-1.3-0.7c-0.6-0.3-1.1-0.6-1.4-0.9
			c-0.6-0.4-1-1-1.2-1.5c-0.2-0.5-0.2-1-0.1-1.6c0.1-0.6,0.4-1,0.7-1.5c0.4-0.4,0.8-0.7,1.3-0.9c0.3-0.1,0.6-0.2,1-0.2h0
			c0.2,0,0.4,0,0.6,0c0.8,0.1,1.5,0.5,2,1.1c0.5,0.6,0.8,1.4,0.8,2.3l0,0.3l-1.5,0.1l0-0.5c0-0.4-0.2-0.8-0.5-1.1
			c-0.3-0.3-0.6-0.5-1.1-0.6c-0.1,0-0.2,0-0.3,0c-0.2,0-0.4,0-0.6,0.1c-0.3,0.1-0.5,0.2-0.7,0.5c-0.2,0.2-0.3,0.5-0.4,0.7
			c-0.1,0.3,0,0.5,0.1,0.8c0.1,0.3,0.4,0.6,0.7,0.9c0.2,0.2,0.6,0.4,1.1,0.6l0.1,0.1c0.7,0.4,1.2,0.6,1.4,0.7
			c0.6,0.4,1.1,0.8,1.4,1.3c0.3,0.5,0.5,1.1,0.6,1.7c0,0.6-0.1,1.2-0.4,1.8c-0.3,0.5-0.7,1-1.2,1.3c-0.5,0.3-1.1,0.5-1.7,0.5
			L59.5,42.7z"/>
	</g>
</g>
</svg>
